<?xml version="1.0" encoding="utf-8"?>
<!-- Generator: Adobe Illustrator 25.2.1, SVG Export Plug-In . SVG Version: 6.00 Build 0)  -->
<svg version="1.1" id="Layer_1" xmlns="http://www.w3.org/2000/svg" xmlns:xlink="http://www.w3.org/1999/xlink" x="0px" y="0px"
	 viewBox="0 0 11 11" style="enable-background:new 0 0 11 11;" xml:space="preserve">
<style type="text/css">
	.st0{fill:#08A6E4;}
</style>
<g transform="translate(-446.5 -4428)">
	<path class="st0" d="M455.1,4430.5c-0.1-0.1-0.2-0.1-0.4-0.1c0,0-0.1,0-0.1,0.1l-1.9,2.5l-1.9,2.6l-1.5-2c-0.1-0.1-0.2-0.1-0.4-0.1
		c0,0-0.1,0-0.1,0.1c-0.1,0.1-0.1,0.4,0,0.6l1.6,2.2c0.1,0.1,0.2,0.1,0.4,0.1c0,0,0.1,0,0.1-0.1l4-5.3c0,0-0.1,0.1,0.1-0.2
		C455.3,4430.7,455.1,4430.5,455.1,4430.5z"/>
</g>
</svg>
